P2
# CREATOR: GIMP PNM Filter Version 1.1
4 1
120
60
120
90
60
