P2
# CREATOR: GIMP PNM Filter Version 1.1
64 64
255
236
229
233
230
227
233
233
234
231
235
232
231
231
238
237
237
236
222
214
222
224
219
230
237
234
229
232
234
198
134
174
225
235
234
206
83
64
183
220
211
199
214
226
231
232
230
229
227
232
236
230
230
233
232
236
237
233
226
226
229
226
232
234
232
242
241
239
231
230
237
238
236
234
231
232
234
236
237
238
235
231
117
23
100
172
204
229
239
229
208
195
155
90
95
164
220
173
150
75
57
123
167
174
116
69
102
130
150
179
174
195
218
224
228
230
229
232
234
235
232
231
232
229
231
224
232
229
226
238
237
236
231
229
233
233
235
234
223
221
226
231
236
237
231
209
57
0
82
140
205
216
161
118
100
97
83
122
180
210
171
62
24
32
104
154
167
139
99
72
66
56
36
40
39
92
170
199
220
220
224
226
227
226
226
223
222
223
223
220
226
225
222
229
229
233
230
225
234
231
232
228
222
219
226
231
233
231
224
183
43
0
107
194
155
70
43
64
97
112
160
196
210
181
148
113
141
145
124
124
115
118
107
63
43
24
23
36
23
11
43
112
170
207
215
217
210
219
223
216
218
221
220
219
221
222
223
237
234
234
227
225
225
232
223
225
230
228
230
232
235
226
213
192
70
18
116
104
8
15
47
88
129
165
182
192
203
177
154
120
159
163
109
83
53
51
35
28
29
19
11
20
25
6
4
15
89
153
195
203
206
209
214
219
215
221
224
217
214
223
221
233
232
234
221
227
230
227
229
223
227
224
228
230
228
222
202
179
113
34
81
0
5
25
64
117
151
156
152
174
187
111
77
98
122
148
77
27
17
23
39
25
25
15
7
6
5
6
3
4
5
69
150
190
203
210
215
216
218
218
218
207
209
217
224
223
228
222
221
219
219
223
224
221
221
220
225
224
226
211
169
189
108
29
4
4
16
53
87
51
90
109
142
129
118
109
112
117
142
127
61
15
13
12
9
22
22
19
6
3
2
3
2
2
3
12
65
130
187
202
212
212
215
223
218
210
208
216
219
227
227
221
217
223
221
219
218
223
221
219
226
226
223
204
193
155
71
0
3
11
30
80
31
14
39
118
99
43
50
78
106
115
117
101
51
14
15
11
3
6
10
11
6
3
3
3
3
1
1
2
6
69
143
196
208
211
215
214
210
207
208
215
218
226
221
219
216
218
220
220
219
217
219
218
222
225
212
197
152
87
0
1
5
7
45
33
6
6
62
104
39
29
42
50
17
21
62
36
6
3
5
3
1
3
4
7
7
6
2
3
3
2
0
1
2
12
87
153
206
211
208
211
207
202
211
218
218
218
221
219
220
216
217
215
221
214
219
217
224
220
203
165
99
0
1
3
4
15
32
8
1
10
88
63
15
37
42
22
3
11
8
9
3
0
1
1
2
2
4
11
10
6
3
2
3
2
0
2
3
0
21
89
169
200
210
208
208
202
205
198
213
227
224
219
215
216
211
213
217
220
215
215
218
215
182
108
23
1
3
2
6
9
20
5
0
14
86
42
14
30
51
9
1
4
2
0
1
1
1
1
2
2
2
5
7
2
1
1
2
1
1
2
1
2
2
45
102
187
200
203
205
203
204
207
209
234
227
218
217
221
218
217
222
222
219
217
218
207
132
56
1
3
6
1
9
15
18
0
0
26
59
25
10
34
45
9
1
2
1
0
0
0
1
1
1
0
1
1
2
3
2
1
2
1
1
2
2
1
1
16
82
135
194
198
195
199
202
207
209
234
230
227
218
217
215
215
221
221
219
214
211
179
68
5
1
8
6
7
10
29
3
0
0
28
46
13
9
31
43
2
1
4
4
1
0
1
0
0
0
0
0
1
1
3
1
2
1
0
1
2
2
2
0
2
67
89
187
191
198
201
196
200
207
232
230
227
217
221
221
217
218
220
216
205
201
96
25
0
4
19
2
11
11
13
1
0
0
25
20
4
6
37
17
0
1
1
1
0
0
0
0
0
0
1
1
1
1
1
1
0
1
2
2
1
0
0
0
0
5
95
110
178
188
197
201
202
206
229
220
222
224
223
219
218
224
219
207
199
166
25
0
0
18
19
3
7
15
7
1
1
2
16
6
1
9
17
3
0
0
0
1
0
0
0
1
1
1
0
1
0
1
1
1
1
2
2
1
1
1
1
2
1
0
57
103
182
191
195
202
205
213
229
229
228
226
225
222
219
221
219
206
207
88
0
3
0
33
6
3
8
12
3
0
2
4
19
1
3
8
7
3
0
1
1
2
2
1
1
1
2
1
0
0
0
1
2
0
1
2
2
1
1
1
2
1
1
2
12
99
151
187
192
201
205
211
225
230
225
224
227
223
216
218
217
202
187
28
0
1
2
32
1
3
8
6
3
1
3
8
21
0
3
3
4
2
0
0
1
2
1
1
2
2
2
1
1
1
0
1
2
1
2
2
2
1
1
2
2
1
2
2
0
76
136
184
186
193
199
205
229
233
225
223
225
225
219
217
210
200
131
12
0
0
7
8
0
5
8
8
5
4
10
19
28
0
4
3
2
1
0
1
0
2
2
1
2
2
2
0
1
2
2
2
0
1
2
1
1
1
1
1
1
0
0
1
0
37
95
172
185
194
204
199
240
233
231
231
230
224
224
220
211
197
81
19
0
0
5
2
3
9
11
13
6
6
21
25
25
0
5
5
3
1
1
2
1
1
1
1
3
2
3
1
2
2
2
1
1
2
1
0
0
1
2
1
0
1
0
0
0
20
95
168
184
193
197
200
239
234
231
231
234
228
222
219
209
165
62
37
1
0
2
2
2
13
21
21
5
17
38
37
15
3
11
8
4
0
1
3
2
2
1
2
3
2
3
0
1
1
1
1
2
2
1
0
0
1
1
0
0
1
1
1
0
9
95
168
184
188
186
201
241
240
237
235
234
231
226
219
201
146
46
74
0
0
2
4
4
27
41
40
9
57
48
46
10
9
21
22
6
0
2
9
5
1
3
4
8
2
4
0
0
1
1
1
2
2
1
0
0
1
1
0
0
0
0
0
0
9
89
162
182
192
192
198
241
239
237
237
234
233
228
219
198
128
68
60
0
0
3
9
9
64
75
70
55
103
65
60
9
21
56
61
14
1
12
23
8
6
6
16
14
8
7
0
2
2
1
2
1
1
1
0
1
1
1
0
0
2
2
2
0
9
79
138
177
193
187
204
244
241
240
236
236
233
225
222
207
138
112
28
0
1
6
19
19
102
112
105
144
123
91
103
29
52
124
121
24
28
36
43
31
38
28
35
22
21
13
3
3
3
1
2
0
1
2
2
2
1
1
2
2
1
2
2
0
3
47
121
162
190
197
202
246
244
244
237
238
235
227
216
200
147
90
24
1
1
15
14
49
112
133
124
144
131
136
145
99
122
167
146
70
92
67
91
79
80
70
82
48
56
42
15
8
3
1
2
1
1
2
2
2
1
1
2
2
2
1
2
1
1
32
111
160
188
193
202
246
246
243
238
237
235
225
217
188
141
109
29
1
0
14
26
77
128
140
96
86
89
95
146
178
171
183
126
110
97
62
69
87
84
93
84
74
104
81
39
14
4
2
1
2
2
2
1
1
2
1
2
1
1
2
2
1
3
24
99
159
179
186
194
246
243
239
230
226
233
225
215
202
161
98
43
3
0
15
54
128
165
135
80
56
53
50
87
151
183
147
65
59
39
31
47
67
84
96
84
132
144
104
59
40
23
5
1
2
2
1
0
1
1
2
2
1
2
2
2
1
6
33
73
147
191
196
209
245
241
239
235
233
231
225
218
201
183
116
108
14
0
42
110
183
178
131
86
73
61
43
52
105
151
103
37
23
22
31
66
78
68
125
84
142
155
141
72
44
29
6
2
3
2
1
0
2
2
2
2
0
1
2
1
2
7
22
76
140
177
196
211
245
241
237
237
234
234
226
227
211
216
148
125
14
0
68
123
151
135
151
142
128
101
67
61
80
87
61
30
37
42
68
81
56
28
6
20
9
40
80
62
40
36
9
2
2
1
2
2
3
2
1
1
0
0
1
0
4
14
46
60
143
168
191
208
246
244
242
241
239
240
237
232
220
203
131
150
24
1
65
86
45
135
149
98
90
151
152
103
119
111
73
44
72
96
102
70
14
15
13
20
14
29
22
10
27
36
11
4
3
2
1
2
2
2
2
1
1
0
0
0
7
15
44
84
122
190
199
203
246
245
245
244
241
243
240
236
212
195
156
207
111
0
15
60
114
187
163
142
146
84
181
146
170
180
114
53
65
76
107
81
50
77
40
7
17
69
32
24
70
82
36
3
3
3
2
1
2
3
3
2
2
0
0
1
8
19
73
70
144
193
204
207
244
245
243
240
241
242
239
234
222
224
205
210
100
6
0
72
134
134
120
180
98
162
189
204
207
206
159
86
68
98
113
86
69
191
135
85
97
129
76
85
120
113
39
5
4
2
2
1
2
2
2
2
1
1
2
5
6
35
93
117
172
201
201
207
244
244
243
240
240
242
241
234
231
235
231
230
135
14
0
110
149
135
127
80
103
209
216
206
211
227
196
95
76
149
150
81
49
153
205
197
194
185
164
157
125
93
42
11
5
5
2
2
2
6
3
3
5
12
6
7
21
40
86
160
177
186
200
205
246
244
242
242
239
242
240
238
237
240
235
236
169
40
0
142
226
168
77
92
186
228
222
208
219
227
187
77
94
183
196
140
104
123
202
203
203
191
178
142
82
80
52
21
8
5
6
9
12
8
6
10
9
21
21
12
48
93
122
170
184
192
204
211
245
247
246
243
245
244
243
242
237
241
238
233
180
59
57
198
229
191
165
203
227
232
212
211
226
232
173
70
105
184
226
210
192
184
186
203
200
210
194
150
133
88
57
39
20
25
13
11
9
12
14
18
12
22
44
56
77
142
172
189
195
215
212
225
249
247
242
238
246
244
242
241
239
243
239
230
166
69
114
221
229
223
231
237
232
230
227
225
227
231
177
74
100
180
227
227
217
224
217
215
214
212
192
157
128
68
57
41
27
21
27
28
19
13
19
26
24
39
108
133
95
153
184
187
194
211
218
223
249
247
245
245
244
244
242
243
244
244
240
231
197
100
67
221
235
232
236
238
237
231
219
230
236
232
160
76
90
174
228
237
227
230
227
226
218
195
166
134
69
61
58
34
22
25
25
33
29
21
44
44
39
77
111
156
157
137
187
196
204
213
216
216
246
243
245
241
244
244
241
241
242
245
241
235
226
160
66
207
232
234
236
235
239
235
212
223
234
208
95
38
43
114
215
235
231
231
228
217
184
158
139
100
71
57
38
31
21
24
27
41
50
68
92
75
77
99
110
175
174
178
188
202
210
217
221
215
247
245
246
243
244
246
242
244
243
243
238
232
231
216
133
212
233
230
233
233
236
237
226
222
234
152
39
15
20
59
158
230
231
228
226
197
160
140
127
80
76
56
34
21
19
21
34
56
70
97
102
57
137
140
143
178
178
185
187
201
203
214
219
222
245
245
247
245
244
243
243
243
239
244
239
234
231
234
194
225
233
233
234
233
235
239
234
224
235
157
45
17
21
34
54
189
232
234
215
187
166
151
119
87
65
39
25
18
23
29
34
53
55
67
75
125
162
169
177
174
185
185
182
202
207
215
215
220
245
245
246
244
246
246
246
245
244
248
245
243
238
239
211
228
235
237
228
232
241
231
221
234
238
197
73
41
57
111
82
160
228
229
190
171
151
124
109
74
51
39
24
24
21
28
46
87
41
47
79
147
169
168
177
179
179
181
191
202
204
214
217
223
244
242
247
244
245
247
245
245
246
247
246
243
238
240
212
222
237
234
231
231
236
197
201
231
230
168
45
45
102
160
109
89
171
178
169
149
117
89
73
38
35
27
19
19
20
34
56
73
7
2
67
151
180
171
176
180
192
196
204
205
206
223
223
222
243
246
247
244
244
245
243
242
242
242
244
242
237
240
225
226
238
239
237
238
232
105
72
205
181
95
35
20
35
77
51
35
89
133
142
129
94
54
35
21
26
24
16
17
25
33
53
50
1
10
108
179
196
179
185
195
205
201
209
213
215
225
227
224
246
247
246
244
241
241
237
241
241
244
243
241
236
239
237
233
239
239
240
240
233
209
160
148
139
63
21
6
9
8
19
59
102
130
131
117
83
63
36
24
26
19
18
25
26
33
53
35
2
23
146
187
197
193
193
199
202
204
214
215
217
226
222
222
247
247
246
243
244
245
243
244
241
243
240
241
241
232
234
236
239
237
240
239
240
230
233
234
173
93
60
15
20
38
73
105
152
173
142
105
74
48
31
18
15
14
17
18
25
34
56
23
1
56
128
180
198
191
190
196
204
208
211
213
215
219
217
224
248
249
249
247
246
244
245
243
241
241
239
238
239
241
242
233
236
238
236
239
229
185
203
237
213
98
130
57
42
86
157
198
218
193
140
91
38
24
17
14
11
15
17
20
29
36
48
13
4
21
100
180
192
183
192
206
206
214
213
211
222
230
232
229
247
247
248
246
240
239
246
244
243
242
242
236
242
244
245
238
227
232
229
226
202
195
206
247
206
68
161
164
160
198
222
229
198
152
104
54
30
21
15
15
15
15
19
22
37
43
39
8
3
13
72
148
168
194
199
209
208
213
215
213
225
231
233
230
247
246
250
236
237
242
242
244
239
240
237
240
241
242
244
240
209
227
212
209
202
207
209
129
124
114
94
55
52
99
200
218
180
118
66
41
27
18
18
15
16
18
18
32
57
47
18
4
2
8
64
157
183
199
201
210
217
216
215
212
221
220
225
227
244
249
248
236
243
246
244
242
242
242
240
242
242
243
241
240
227
228
217
219
212
193
79
20
25
111
45
23
24
35
71
130
124
76
53
33
21
14
15
13
15
20
28
49
58
33
15
2
2
12
78
155
197
209
212
217
223
217
214
217
222
223
235
231
247
249
251
246
247
249
246
245
244
243
237
237
240
239
240
235
237
231
221
217
208
149
36
27
42
74
89
52
32
17
34
76
69
60
48
36
26
18
15
14
17
23
33
55
53
10
9
4
1
9
68
156
187
194
202
211
227
227
222
215
223
222
227
233
250
250
249
247
245
248
247
247
245
244
238
238
235
242
240
234
237
235
216
211
204
196
139
55
122
135
70
40
20
6
12
27
38
52
50
40
27
20
16
13
22
33
49
70
23
3
14
6
1
5
57
147
174
178
184
217
217
222
221
214
221
223
230
231
246
249
249
241
245
245
246
242
241
241
240
240
235
236
235
235
230
225
212
205
200
218
214
170
136
199
180
119
63
34
40
24
29
37
41
39
27
18
16
15
22
43
79
45
4
6
32
13
2
7
73
147
159
162
184
212
223
218
218
214
218
220
228
226
249
249
247
243
247
244
243
241
241
242
239
239
235
233
235
238
233
222
155
187
216
230
233
197
102
40
29
27
20
17
32
24
19
22
27
33
19
14
17
23
46
81
72
11
1
14
72
31
3
6
37
112
146
182
203
216
213
214
211
217
222
221
226
234
249
248
247
245
246
247
245
244
241
240
238
237
230
231
234
233
223
214
196
125
208
228
225
192
108
27
9
8
9
13
15
18
19
21
20
16
10
18
26
46
97
83
14
1
7
36
112
52
1
6
14
90
158
191
197
204
209
214
220
218
213
221
226
232
251
250
248
239
244
245
245
245
244
243
243
240
236
236
232
235
221
220
232
198
166
206
221
194
142
112
85
56
43
35
25
24
25
22
19
14
15
27
46
80
62
15
0
7
24
66
122
116
48
19
38
120
165
183
197
206
205
222
222
226
228
232
233
236
251
249
248
243
245
246
245
244
243
240
238
237
227
227
207
215
218
226
235
226
206
186
225
205
197
214
210
197
169
137
85
52
41
29
22
19
30
50
71
34
5
1
6
16
43
95
148
174
187
161
170
199
210
201
207
214
199
222
218
223
233
231
237
239
248
248
247
246
246
246
243
242
243
243
237
236
234
229
214
210
222
227
220
215
218
210
214
227
221
213
213
211
216
193
127
78
49
39
26
26
49
61
18
0
3
8
12
34
69
123
173
199
208
229
232
232
225
217
216
198
214
230
232
232
230
234
234
237
249
248
247
241
243
247
242
240
243
243
242
237
236
239
238
234
230
228
218
218
220
209
181
218
225
212
201
204
194
148
85
50
42
38
33
38
29
1
0
6
11
19
31
59
94
166
203
218
218
232
233
235
233
226
199
204
229
234
235
233
234
236
236
237
247
248
244
241
243
245
243
241
241
243
241
238
228
228
235
232
227
232
229
230
226
226
182
185
235
221
200
186
130
68
53
50
44
33
19
5
0
3
8
16
29
37
48
90
131
196
220
228
239
236
237
235
230
229
216
234
236
235
237
236
235
238
239
237
246
245
246
242
243
242
240
242
239
243
237
237
232
229
233
225
229
230
230
226
232
229
222
185
181
191
173
143
105
71
55
45
19
4
1
2
4
15
27
29
36
56
67
129
176
214
232
234
237
237
237
231
231
236
236
238
235
236
236
235
236
239
239
231
247
246
246
241
245
239
241
243
240
241
240
242
235
236
234
225
227
228
236
229
228
225
227
229
209
109
77
82
73
49
13
2
1
3
5
9
22
38
42
45
80
113
131
177
221
234
238
236
237
241
237
239
237
239
236
239
238
240
239
238
237
237
239
236
246
244
244
239
243
243
241
240
235
233
237
242
236
235
229
229
237
232
235
231
234
233
230
236
238
218
193
178
141
74
16
10
13
20
42
59
61
76
85
95
141
201
208
218
231
239
241
239
240
241
240
237
235
237
234
238
234
231
232
233
238
236
237
236
245
243
243
239
240
240
237
235
237
236
239
238
232
233
219
223
234
229
229
228
229
234
236
237
239
235
224
223
228
172
91
71
90
113
143
131
127
138
141
159
210
232
236
238
246
244
243
238
241
244
241
240
236
235
238
239
234
231
231
230
230
235
237
233
246
245
243
240
242
242
239
236
236
239
239
240
231
237
234
232
233
224
229
230
223
227
229
237
240
239
236
236
239
225
184
168
190
207
206
178
180
198
197
207
227
239
242
244
247
246
246
242
246
245
243
242
240
240
243
242
240
240
236
236
234
236
237
238
247
246
246
242
243
242
242
237
234
240
237
238
233
240
243
240
236
229
234
232
232
236
239
243
246
246
247
246
247
245
236
233
237
241
231
221
222
224
224
222
229
241
243
247
246
247
246
244
246
246
243
242
241
242
244
244
239
238
231
232
236
234
237
239
