P2
# Created by Paint Shop Pro 6
64 64
255
159 158 156 155 159 169 166 131 94 103 105 106 105 112 120 126 131 131 
130 132 132 134 131 132 134 133 133 131 131 130 133 131 133 130 130 129 
130 127 119 109 120 149 158 150 154 155 152 152 155 155 177 215 190 104 
116 120 121 120 124 122 126 124 119 136 156 156 155 153 161 170 162 127 
91 100 104 103 103 110 120 125 130 130 131 130 131 132 131 131 131 131 
131 130 131 130 132 130 130 130 129 129 130 129 121 111 108 139 156 156 
157 157 156 156 153 152 154 204 215 137 111 118 119 120 121 122 124 129 
97 48 156 157 156 157 166 164 158 129 91 99 105 104 102 112 119 123 129 
131 132 131 132 132 132 132 131 131 130 131 130 130 135 131 131 128 129 
125 129 128 122 115 106 124 152 161 162 163 158 155 152 150 149 170 215 
198 111 114 119 121 124 128 133 92 48 48 157 158 157 163 166 159 159 127 
88 100 105 104 104 109 121 123 128 129 130 130 131 131 131 130 133 125 
123 124 124 126 129 130 131 127 127 124 125 126 123 117 107 123 149 160 
160 156 156 156 154 154 149 147 199 219 158 111 119 120 122 131 90 47 45 
51 158 160 164 167 163 158 156 127 89 99 105 103 103 111 119 121 126 127 
125 127 128 129 131 127 129 124 123 123 122 121 125 130 131 127 128 124 
124 124 123 115 109 119 144 155 157 157 156 155 156 156 151 146 159 216 
214 121 113 121 128 89 44 52 51 50 160 162 164 158 159 159 157 126 86 99 
104 104 101 111 119 122 123 124 124 126 125 128 130 126 128 127 127 133 
138 134 123 124 127 126 128 127 124 124 122 114 110 117 141 148 154 156 
153 154 152 151 146 143 141 192 221 178 107 116 90 45 49 56 49 44 159 167 
155 141 160 162 160 127 86 96 103 103 105 113 120 123 124 124 127 127 127 
127 127 129 142 144 155 166 178 176 181 167 139 119 126 127 124 124 119 
114 110 117 142 143 149 151 150 151 149 146 142 140 139 153 212 221 140 
87 42 45 53 52 45 45 165 165 132 126 160 164 162 127 81 93 99 99 104 112 
116 121 123 124 125 128 132 137 127 132 136 144 151 161 169 176 182 188 
194 169 123 120 121 121 117 111 105 117 142 144 145 149 150 144 144 145 
142 139 140 139 178 223 177 41 44 52 49 48 47 48 170 150 96 121 161 164 
160 125 77 88 97 98 102 107 114 116 122 124 123 132 113 119 122 130 130 
134 142 156 170 178 183 188 191 196 188 134 108 113 114 108 103 115 144 
148 143 141 144 144 141 144 144 140 143 144 149 197 77 42 50 52 47 47 49 
42 164 123 80 123 161 167 159 123 78 91 99 99 100 106 114 115 117 121 126 
122 109 114 124 127 132 134 139 149 162 178 185 190 193 193 194 204 170 
101 107 104 102 114 147 154 147 126 126 145 145 145 141 144 144 147 151 
73 43 48 50 45 51 50 56 86 144 91 85 123 161 167 159 122 79 91 98 99 100 
107 113 117 120 122 121 108 114 118 120 123 131 134 137 144 161 181 187 
182 190 202 210 209 217 169 90 99 96 111 145 153 150 117 82 134 145 145 
145 145 145 150 98 40 48 52 46 50 50 66 82 149 108 88 86 122 159 166 160 
122 78 93 98 101 100 106 114 116 121 121 109 112 116 114 116 127 135 138 
142 144 159 172 173 194 208 204 202 206 210 220 132 84 91 110 146 153 151 
122 52 105 143 145 141 143 145 131 49 47 52 47 52 48 60 90 141 145 87 90 
86 120 158 165 159 122 78 92 98 99 101 107 114 116 122 114 111 112 115 
118 126 132 136 139 138 140 152 171 195 200 199 197 202 203 206 210 213 
147 75 106 147 153 152 122 50 65 125 145 141 144 148 63 42 55 50 49 49 
54 73 137 147 163 88 91 88 121 156 164 159 123 79 90 98 99 99 106 115 113 
138 103 108 113 115 121 132 139 137 137 126 138 178 192 191 188 194 203 
204 204 205 205 211 219 108 99 144 153 152 122 53 42 83 136 144 146 99 
42 50 52 49 51 52 55 131 140 158 163 89 90 85 118 157 163 160 123 77 87 
95 98 101 106 110 117 147 104 110 111 118 128 136 133 133 121 143 182 181 
184 183 194 195 198 200 201 202 206 206 212 196 87 143 153 152 123 53 40 
94 197 208 205 51 48 54 55 51 52 46 112 143 154 160 160 89 92 90 116 156 
166 159 121 74 87 98 98 100 105 112 146 134 102 109 112 123 124 123 129 
118 153 173 169 177 178 189 189 190 191 197 200 200 201 204 205 215 131 
141 156 152 118 44 127 191 210 215 224 88 47 52 48 47 52 83 146 151 160 
160 159 97 98 96 118 156 167 163 125 78 89 99 102 102 108 110 164 122 101 
105 116 118 122 128 120 151 160 164 172 181 181 182 177 184 191 194 197 
196 188 199 202 203 203 155 153 146 119 168 195 209 205 204 221 94 50 49 
46 51 47 139 148 160 157 155 155 98 99 98 121 156 170 167 129 78 92 99 
100 100 107 103 174 121 104 102 110 118 120 120 146 149 147 163 173 169 
177 169 176 179 182 186 188 181 188 195 195 194 193 189 151 175 195 199 
204 201 202 209 221 69 51 47 46 51 102 148 158 160 156 154 154 99 99 99 
121 161 171 168 129 78 89 99 98 98 103 99 192 134 109 105 112 120 119 143 
144 139 152 157 167 169 166 173 174 173 179 182 180 186 189 186 182 183 
177 190 190 196 203 201 198 203 196 207 209 43 50 45 51 76 144 151 160 
159 156 155 154 98 98 97 119 161 171 167 130 79 93 99 98 98 102 102 192 
150 126 103 110 114 136 140 131 148 148 148 158 166 168 168 169 167 164 
171 178 182 179 177 171 173 185 190 199 198 198 199 202 196 166 182 148 
44 50 46 55 120 149 159 160 161 158 159 158 97 93 95 123 162 170 168 131 
81 92 99 98 99 100 105 190 158 135 108 109 135 132 127 142 140 143 148 
156 157 161 162 162 161 164 166 167 167 166 162 175 185 195 197 192 195 
198 200 207 169 157 173 85 47 47 49 87 148 153 160 157 159 158 157 156 
98 97 100 125 161 171 169 131 77 91 97 96 98 97 108 199 167 150 119 126 
129 124 138 134 132 141 148 134 126 126 140 132 153 154 155 139 148 159 
178 190 195 189 193 198 203 203 206 192 132 117 180 39 48 52 55 130 147 
159 158 155 156 154 155 153 99 98 103 129 163 171 170 132 77 89 98 99 100 
99 101 204 179 137 122 119 118 135 129 129 132 138 129 123 106 87 138 104 
89 86 60 57 127 175 193 193 194 192 197 199 203 197 155 105 98 171 100 
47 46 49 77 145 155 161 160 156 155 153 153 153 103 98 103 128 163 171 
169 135 78 90 98 99 100 98 86 198 186 132 132 110 132 129 127 129 135 122 
123 97 78 62 101 84 88 70 43 125 169 187 191 190 191 192 196 196 163 96 
99 133 176 94 45 48 49 53 120 148 163 160 160 158 155 154 153 153 106 103 
101 127 162 170 169 134 79 89 96 99 97 99 93 161 193 155 124 127 124 122 
124 127 124 107 73 64 49 81 68 90 67 74 133 175 183 182 182 182 190 193 
152 102 118 154 167 181 97 44 51 48 50 67 144 157 166 164 161 158 156 154 
154 153 106 103 98 122 162 170 169 135 75 87 96 97 96 101 104 109 199 175 
121 126 122 124 126 124 84 77 60 75 46 66 59 68 92 117 178 190 182 178 
176 182 186 174 82 102 121 154 173 83 44 51 55 47 53 102 140 165 165 165 
161 160 158 158 155 153 106 102 95 116 161 170 171 137 75 86 96 97 99 103 
109 99 173 186 124 114 122 124 120 89 65 81 53 76 59 49 58 73 104 154 182 
177 175 175 176 190 194 195 121 81 105 147 70 43 52 57 49 48 60 125 145 
166 166 166 162 161 160 158 155 152 104 103 95 115 159 171 170 138 76 87 
98 100 101 104 112 105 166 164 111 117 123 122 75 63 45 65 66 62 88 48 
59 116 146 181 183 163 174 166 188 198 200 203 149 57 79 148 53 46 54 59 
45 47 89 134 152 161 164 162 163 163 160 160 157 152 105 102 95 115 160 
173 172 137 80 88 99 102 100 109 118 114 136 148 114 122 114 69 52 62 55 
50 58 83 80 46 129 169 157 177 176 164 161 179 194 200 203 210 178 70 49 
141 59 54 59 57 47 49 123 145 157 151 150 153 155 159 159 157 153 150 102 
98 93 113 159 174 173 139 81 92 99 103 102 110 116 116 118 130 127 125 
75 62 45 61 58 54 55 67 60 115 158 180 165 178 160 159 171 180 195 199 
204 210 198 95 42 126 64 56 59 53 50 69 136 158 163 161 158 153 145 145 
147 149 152 151 99 98 95 113 160 174 174 138 80 90 100 102 101 108 117 
126 116 106 130 96 69 71 45 68 46 58 62 56 93 153 168 178 179 125 133 157 
177 176 188 194 197 205 195 94 39 108 83 61 62 50 50 103 137 160 159 158 
164 160 154 148 145 142 142 142 101 102 95 110 158 174 174 139 81 90 101 
100 100 105 117 142 107 91 101 72 69 82 50 57 55 49 67 68 149 182 171 173 
129 130 121 87 121 167 180 191 185 144 106 88 47 92 100 61 57 51 56 125 
146 159 157 156 156 157 154 155 155 150 143 134 98 96 89 105 159 176 175 
141 78 87 99 100 94 126 148 151 125 70 70 87 91 54 66 42 74 51 40 128 174 
194 161 71 55 54 73 77 126 144 175 198 119 71 58 59 46 83 113 61 51 51 
66 137 156 156 153 154 154 154 153 152 153 147 141 137 98 94 82 101 160 
176 176 138 81 92 101 101 87 119 163 123 69 66 64 66 104 45 50 60 45 45 
80 157 187 181 102 60 85 81 197 105 114 135 180 172 76 93 115 47 45 81 
121 67 49 49 99 142 159 154 152 153 153 152 152 147 144 137 129 141 101 
95 83 98 159 178 178 142 88 99 108 87 102 145 135 68 77 64 71 86 113 64 
44 48 46 47 137 178 176 122 136 128 120 140 163 146 124 132 188 171 131 
135 87 60 51 75 130 67 46 54 123 149 153 153 151 156 153 152 144 139 137 
144 170 184 97 89 76 92 158 179 182 145 86 98 108 127 126 80 54 65 105 
70 64 92 103 73 44 47 42 99 165 179 104 131 151 156 152 152 161 155 134 
128 179 198 152 131 108 76 50 68 141 59 49 61 134 155 153 153 152 150 149 
145 140 134 164 189 190 190 89 82 69 88 157 177 179 145 85 96 121 130 108 
79 68 100 96 45 59 88 90 97 52 45 64 138 190 85 112 133 150 166 174 173 
173 155 141 129 168 204 162 139 126 82 55 60 151 49 47 87 140 156 153 150 
150 147 145 139 134 166 195 194 190 192 78 73 65 85 157 176 176 145 83 
98 109 106 93 82 72 103 65 48 47 56 50 114 74 37 102 177 114 65 118 131 
145 160 175 176 170 151 140 127 160 207 160 143 128 73 54 53 153 51 52 
113 152 155 153 149 146 145 142 135 148 192 192 194 199 203 77 73 60 83 
155 171 175 144 77 113 128 88 105 74 84 113 79 53 39 74 71 136 87 50 136 
169 42 71 113 131 143 155 164 169 163 144 131 123 148 211 157 142 125 58 
60 49 144 68 52 134 156 154 153 149 145 141 139 134 182 193 193 203 207 
202 80 74 55 77 154 173 175 145 81 108 116 82 93 75 84 114 76 50 45 81 
106 69 41 114 154 68 45 79 111 128 138 147 154 159 156 133 130 130 142 
211 153 140 109 44 62 48 131 86 71 142 157 152 151 149 145 143 136 153 
195 193 202 205 204 207 80 75 62 91 156 173 176 146 89 95 108 81 95 80 
71 104 113 50 59 46 84 45 77 178 114 40 48 90 112 127 136 147 150 155 157 
136 121 107 120 180 148 135 74 46 64 50 116 95 100 150 155 152 149 145 
146 141 133 176 196 200 204 207 210 209 77 76 69 112 160 170 177 148 84 
93 118 65 75 74 77 104 116 72 101 48 80 130 116 139 46 56 51 99 117 125 
134 141 147 154 157 151 139 154 171 179 146 121 49 52 73 57 97 106 127 
153 154 151 149 145 145 140 136 187 198 207 205 209 211 210 71 69 65 114 
160 171 176 149 83 99 118 75 81 61 70 82 92 113 75 72 136 152 112 59 49 
59 47 99 114 128 133 142 141 146 149 148 151 190 191 178 141 84 48 56 74 
57 79 121 139 152 153 149 148 144 144 138 142 193 204 208 208 208 211 212 
61 66 66 113 161 173 178 150 86 106 113 64 67 62 89 86 78 105 90 155 177 
112 81 57 47 62 50 89 103 126 130 139 140 119 122 127 124 132 137 128 130 
48 49 60 76 60 64 135 145 155 151 148 149 145 143 138 145 198 211 209 210 
211 212 212 55 60 69 116 161 176 179 150 110 99 107 71 48 73 108 85 96 
84 127 159 130 119 48 46 49 58 55 79 91 118 124 133 145 133 118 123 144 
158 152 142 84 47 46 59 79 67 57 149 148 156 152 152 148 145 144 136 150 
208 211 211 211 212 211 210 52 53 70 110 158 177 180 151 76 115 83 86 56 
68 122 105 88 116 129 154 147 56 55 52 53 59 59 72 73 104 116 128 137 140 
131 126 127 133 143 123 47 49 54 61 80 69 58 155 151 156 155 154 150 146 
141 133 152 216 212 215 213 208 206 207 49 49 85 114 153 176 176 149 78 
107 77 69 59 53 122 120 106 104 104 162 68 50 55 51 51 53 58 57 63 78 104 
124 134 139 143 150 163 158 147 72 45 54 56 63 82 74 59 159 150 155 152 
150 149 145 140 129 154 218 215 213 212 211 210 208 48 46 80 117 155 175 
177 150 77 89 59 73 62 51 109 76 121 122 119 88 55 52 60 52 52 49 55 55 
59 58 65 103 124 139 149 164 167 165 134 51 53 58 53 69 85 76 63 159 146 
151 150 149 148 142 137 125 170 218 211 212 211 204 197 163 49 41 65 106 
157 172 175 144 113 109 58 65 59 44 122 84 93 111 138 120 67 49 67 52 49 
50 50 58 58 68 78 98 114 127 141 155 160 157 145 73 54 57 52 72 88 80 71 
155 117 124 132 137 145 141 134 120 192 214 210 209 199 149 69 49 79 54 
57 83 150 170 173 161 97 85 44 69 60 68 89 107 106 103 109 102 130 61 65 
57 49 50 50 56 56 64 110 124 128 135 141 142 145 167 193 200 158 83 44 
72 85 79 78 146 128 122 113 107 109 115 117 113 199 206 210 203 149 60 
60 81 133 106 74 65 144 170 173 149 121 64 39 88 66 89 58 96 98 86 116 
126 97 92 58 58 51 51 54 54 65 60 106 122 127 137 140 140 151 173 188 194 
200 206 133 59 76 71 82 147 143 138 133 124 110 98 113 93 195 209 206 146 
64 76 86 86 129 147 110 63 145 173 173 157 137 46 49 58 67 64 69 74 65 
79 107 136 101 108 68 58 54 52 60 60 84 58 108 120 134 139 140 143 158 
168 179 186 195 204 212 147 57 68 85 144 147 141 140 135 128 120 126 126 
208 212 190 75 87 91 102 91 74 153 143 61 148 177 176 155 107 40 53 52 
48 81 48 63 78 81 94 119 135 82 97 52 54 47 58 53 101 64 104 130 134 140 
140 145 154 161 171 181 190 200 209 218 101 53 92 141 145 141 141 138 132 
126 134 164 214 211 145 83 95 106 95 100 45 148 153 54 147 176 178 154 
101 44 54 46 58 76 55 58 64 91 90 118 124 72 106 54 63 49 54 57 103 72 
108 129 135 137 140 146 150 158 168 178 188 199 209 215 192 38 101 144 
145 142 139 134 130 125 174 203 216 200 106 94 107 97 97 101 35 139 156 
54 147 177 178 155 86 51 45 44 87 63 56 47 49 70 94 116 129 129 93 56 58 
54 53 77 121 78 112 132 137 135 138 143 147 155 163 175 187 197 207 212 
218 73 110 148 142 141 138 133 126 144 213 210 215 163 96 98 109 92 103 
96 34 131 161 61 144 176 174 155 91 46 47 57 61 63 55 45 52 65 76 127 98 
96 87 85 79 53 55 101 125 78 118 134 140 137 135 139 145 152 159 169 183 
194 205 211 215 128 120 147 141 140 139 133 124 159 211 213 204 129 103 
103 100 97 97 88 36 116 163 69 142 176 177 158 93 45 50 60 53 57 52 51 
56 72 87 115 103 84 54 55 61 50 70 114 123 79 128 139 141 139 136 139 143 
149 157 166 177 191 201 208 212 180 128 143 141 142 139 134 130 146 189 
213 182 114 98 96 89 99 93 93 35 104 163 82 137 175 177 155 105 47 55 47 
57 60 54 51 60 71 74 75 71 120 52 48 44 50 90 119 100 96 133 140 141 140 
138 138 142 147 153 161 172 186 197 207 213 213 126 96 114 130 137 138 
146 140 157 215 159 99 93 81 97 93 95 79 35 94 170 93 133 172 176 157 98 
51 45 55 56 57 57 46 53 73 117 81 85 59 46 45 42 68 111 117 68 122 134 
140 141 140 140 134 139 146 150 158 166 180 193 205 210 215 131 86 82 77 
79 92 137 155 182 203 112 74 84 94 93 94 95 61 72 105 178 108 132 173 178 
152 95 47 51 50 52 57 59 46 50 54 87 125 100 44 41 39 51 92 116 75 94 133 
136 140 140 140 140 137 139 141 147 154 162 175 190 200 208 214 172 97 
101 87 63 41 120 184 199 157 65 73 87 95 83 101 85 58 90 124 176 124 130 
173 180 147 92 46 48 51 49 58 61 55 62 61 66 97 82 45 42 42 77 98 69 83 
125 133 137 140 140 142 140 140 139 140 144 150 159 167 180 195 205 211 
206 92 104 98 86 71 124 200 148 67 66 78 98 76 91 104 80 63 67 104 169 
131 128 173 180 155 65 46 54 52 57 67 63 87 62 59 73 110 76 44 43 46 62 
75 107 122 127 132 136 139 140 142 146 142 140 140 142 148 155 165 178 
189 200 211 214 112 96 104 100 106 119 135 81 77 77 101 78 74 109 101 65 
59 56 80 180 159 128 175 183 143 56 49 54 58 60 71 52 102 62 72 77 80 77 
44 46 77 105 114 124 126 128 132 134 137 139 140 145 146 146 143 144 147 
152 161 171 182 195 204 210 142 90 105 114 116 111 102 107 88 93 78 72 
102 114 82 57 54 49 68 192 181 129 173 180 141 53 48 59 67 64 82 64 80 
84 82 60 63 86 67 71 97 113 120 124 125 130 132 135 135 137 140 143 143 
146 147 147 150 153 161 167 179 191 200 208 180 88 97 115 125 119 127 110 
90 82 83 93 124 92 54 57 87 
